<?xml version="1.0" encoding="utf-8"?>
<!-- Generator: Adobe Illustrator 23.1.0, SVG Export Plug-In . SVG Version: 6.00 Build 0)  -->
<svg version="1.1" id="Layer_1" xmlns="http://www.w3.org/2000/svg" xmlns:xlink="http://www.w3.org/1999/xlink" x="0px" y="0px"
	 viewBox="0 0 1000 1000" style="enable-background:new 0 0 1000 1000;" xml:space="preserve">
<style type="text/css">
	.st0{fill:#FF6600;}
	.st1{fill:#1399B8;}
</style>
<path class="st0" d="M169.3,886c-22.8-24.4-50-57.7-75.5-100.7c-11.4-19.2-35.4-62.1-54.6-121.7c-11.6-36.2-30-104.8-29.4-193
	c0.2-32.2,3.2-101.4,29.4-184.6c15.4-49,34.3-88.5,50.4-117.5c194.4,0,388.9,0,583.3,0c-13.8,41.8-30.9,99-46.2,167.9
	c-15.3,68.9-35.2,161.2-37.8,281.2c-1.5,68.7,2.4,162.6,25.2,272.8c-2.8-73.1-0.3-156.5,12.6-247.6
	C659.6,410.8,745.4,231,815.6,113.8c-180.4-14-360.9-28-541.3-42c21-23.8,42-47.6,62.9-71.3c214,16.8,428,33.6,642.1,50.4
	c-12.9,17.1-32.2,43.1-54.6,75.5c-73,105.9-156.3,226.6-205.6,386.1c-16.9,54.6-36.6,135.8-42,239.2c8.1-47.8,21.1-101.8,42-159.5
	c51.6-142.2,129.1-245,188.8-310.5c12.7,19.9,28,46.7,42,79.7c23,54.5,31.2,99.3,33.6,113.3c13.6,80.7,2.7,144.6,0,159.5
	c-25.3,137.9-116.2,225.7-151.1,256c-91.5,79.2-189.7,101.7-235,109.1c-7.8-19.3-18.7-48.2-29.4-83.9
	c-50.1-166.9-43.3-306.9-37.8-402.9c4-70.2,14.4-165.6,42-277c-149.7,2.8-299.3,5.6-449,8.4c-8.3,18.3-19,44-29.4,75.5
	C82.7,353.1,54.2,448.2,56,550.2C58.8,709.8,134.9,835.2,169.3,886z"/>
<path class="st1" d="M488.3,315.2c-114.7,2.8-229.4,5.6-344.1,8.4c-3.6,13.2-8.3,31.9-12.6,54.6c-6.3,33.5-20.3,110.6-8.4,205.6
	c6.1,48.2,16,121.3,62.9,201.4C205,817.5,252,895.4,349.8,948.9c89.4,49,174,51.7,214,50.4c-21.5-52-34.5-94.9-42-121.7
	c-45.7-164.8-42.5-309.9-37.8-470C485.3,366.7,487.1,333.9,488.3,315.2z"/>
<g>
</g>
<g>
</g>
<g>
</g>
<g>
</g>
<g>
</g>
<g>
</g>
<g>
</g>
<g>
</g>
<g>
</g>
<g>
</g>
<g>
</g>
</svg>
